<mxfile host="app.diagrams.net" agent="Mozilla/5.0 (Windows NT 10.0; Win64; x64) AppleWebKit/537.36 (KHTML, like Gecko) Chrome/140.0.0.0 Safari/537.36 Edg/140.0.0.0" version="28.2.1">
  <diagram id="iTxN1DrXMSL9kZE5N5Qa" name="ページ1">
    <mxGraphModel dx="1034" dy="570" grid="1" gridSize="10" guides="1" tooltips="1" connect="1" arrows="1" fold="1" page="1" pageScale="1" pageWidth="827" pageHeight="1169" math="0" shadow="0">
      <root>
        <mxCell id="0" />
        <mxCell id="1" parent="0" />
        <mxCell id="ybonvfWxFbhNdkA5fpZU-3" value="" style="shape=umlLifeline;perimeter=lifelinePerimeter;whiteSpace=wrap;html=1;container=1;dropTarget=0;collapsible=0;recursiveResize=0;outlineConnect=0;portConstraint=eastwest;newEdgeStyle={&quot;curved&quot;:0,&quot;rounded&quot;:0};participant=umlActor;" vertex="1" parent="1">
          <mxGeometry x="160" y="110" width="30" height="410" as="geometry" />
        </mxCell>
        <mxCell id="ybonvfWxFbhNdkA5fpZU-4" value="" style="html=1;points=[[0,0,0,0,5],[0,1,0,0,-5],[1,0,0,0,5],[1,1,0,0,-5]];perimeter=orthogonalPerimeter;outlineConnect=0;targetShapes=umlLifeline;portConstraint=eastwest;newEdgeStyle={&quot;curved&quot;:0,&quot;rounded&quot;:0};" vertex="1" parent="ybonvfWxFbhNdkA5fpZU-3">
          <mxGeometry x="10" y="80" width="10" height="100" as="geometry" />
        </mxCell>
        <mxCell id="ybonvfWxFbhNdkA5fpZU-38" value="" style="html=1;points=[[0,0,0,0,5],[0,1,0,0,-5],[1,0,0,0,5],[1,1,0,0,-5]];perimeter=orthogonalPerimeter;outlineConnect=0;targetShapes=umlLifeline;portConstraint=eastwest;newEdgeStyle={&quot;curved&quot;:0,&quot;rounded&quot;:0};" vertex="1" parent="ybonvfWxFbhNdkA5fpZU-3">
          <mxGeometry x="10" y="240" width="10" height="120" as="geometry" />
        </mxCell>
        <mxCell id="ybonvfWxFbhNdkA5fpZU-9" value="" style="shape=umlLifeline;perimeter=lifelinePerimeter;whiteSpace=wrap;html=1;container=1;dropTarget=0;collapsible=0;recursiveResize=0;outlineConnect=0;portConstraint=eastwest;newEdgeStyle={&quot;curved&quot;:0,&quot;rounded&quot;:0};participant=umlControl;fillColor=#f8cecc;strokeColor=#b85450;" vertex="1" parent="1">
          <mxGeometry x="460" y="110" width="40" height="420" as="geometry" />
        </mxCell>
        <mxCell id="ybonvfWxFbhNdkA5fpZU-46" value="" style="html=1;points=[[0,0,0,0,5],[0,1,0,0,-5],[1,0,0,0,5],[1,1,0,0,-5]];perimeter=orthogonalPerimeter;outlineConnect=0;targetShapes=umlLifeline;portConstraint=eastwest;newEdgeStyle={&quot;curved&quot;:0,&quot;rounded&quot;:0};" vertex="1" parent="ybonvfWxFbhNdkA5fpZU-9">
          <mxGeometry x="15" y="265" width="10" height="45" as="geometry" />
        </mxCell>
        <mxCell id="ybonvfWxFbhNdkA5fpZU-10" value="" style="shape=umlLifeline;perimeter=lifelinePerimeter;whiteSpace=wrap;html=1;container=1;dropTarget=0;collapsible=0;recursiveResize=0;outlineConnect=0;portConstraint=eastwest;newEdgeStyle={&quot;curved&quot;:0,&quot;rounded&quot;:0};participant=umlBoundary;fillColor=#d5e8d4;strokeColor=#82b366;" vertex="1" parent="1">
          <mxGeometry x="250" y="110" width="50" height="420" as="geometry" />
        </mxCell>
        <mxCell id="ybonvfWxFbhNdkA5fpZU-18" value="" style="html=1;points=[[0,0,0,0,5],[0,1,0,0,-5],[1,0,0,0,5],[1,1,0,0,-5]];perimeter=orthogonalPerimeter;outlineConnect=0;targetShapes=umlLifeline;portConstraint=eastwest;newEdgeStyle={&quot;curved&quot;:0,&quot;rounded&quot;:0};" vertex="1" parent="ybonvfWxFbhNdkA5fpZU-10">
          <mxGeometry x="20" y="100" width="10" height="60" as="geometry" />
        </mxCell>
        <mxCell id="ybonvfWxFbhNdkA5fpZU-11" value="" style="shape=umlLifeline;perimeter=lifelinePerimeter;whiteSpace=wrap;html=1;container=1;dropTarget=0;collapsible=0;recursiveResize=0;outlineConnect=0;portConstraint=eastwest;newEdgeStyle={&quot;curved&quot;:0,&quot;rounded&quot;:0};participant=umlBoundary;fillColor=#d5e8d4;strokeColor=#82b366;" vertex="1" parent="1">
          <mxGeometry x="355" y="110" width="50" height="420" as="geometry" />
        </mxCell>
        <mxCell id="ybonvfWxFbhNdkA5fpZU-35" value="" style="html=1;points=[[0,0,0,0,5],[0,1,0,0,-5],[1,0,0,0,5],[1,1,0,0,-5]];perimeter=orthogonalPerimeter;outlineConnect=0;targetShapes=umlLifeline;portConstraint=eastwest;newEdgeStyle={&quot;curved&quot;:0,&quot;rounded&quot;:0};" vertex="1" parent="ybonvfWxFbhNdkA5fpZU-11">
          <mxGeometry x="20" y="110" width="10" height="40" as="geometry" />
        </mxCell>
        <mxCell id="ybonvfWxFbhNdkA5fpZU-39" value="" style="html=1;points=[[0,0,0,0,5],[0,1,0,0,-5],[1,0,0,0,5],[1,1,0,0,-5]];perimeter=orthogonalPerimeter;outlineConnect=0;targetShapes=umlLifeline;portConstraint=eastwest;newEdgeStyle={&quot;curved&quot;:0,&quot;rounded&quot;:0};" vertex="1" parent="ybonvfWxFbhNdkA5fpZU-11">
          <mxGeometry x="20" y="250" width="10" height="80" as="geometry" />
        </mxCell>
        <mxCell id="ybonvfWxFbhNdkA5fpZU-12" value="" style="shape=umlLifeline;perimeter=lifelinePerimeter;whiteSpace=wrap;html=1;container=1;dropTarget=0;collapsible=0;recursiveResize=0;outlineConnect=0;portConstraint=eastwest;newEdgeStyle={&quot;curved&quot;:0,&quot;rounded&quot;:0};participant=umlEntity;fillColor=#dae8fc;strokeColor=#6c8ebf;" vertex="1" parent="1">
          <mxGeometry x="550" y="110" width="40" height="420" as="geometry" />
        </mxCell>
        <mxCell id="ybonvfWxFbhNdkA5fpZU-47" value="" style="html=1;points=[[0,0,0,0,5],[0,1,0,0,-5],[1,0,0,0,5],[1,1,0,0,-5]];perimeter=orthogonalPerimeter;outlineConnect=0;targetShapes=umlLifeline;portConstraint=eastwest;newEdgeStyle={&quot;curved&quot;:0,&quot;rounded&quot;:0};" vertex="1" parent="ybonvfWxFbhNdkA5fpZU-12">
          <mxGeometry x="15" y="277.5" width="10" height="22.5" as="geometry" />
        </mxCell>
        <mxCell id="ybonvfWxFbhNdkA5fpZU-13" value="" style="html=1;points=[[0,0,0,0,5],[0,1,0,0,-5],[1,0,0,0,5],[1,1,0,0,-5]];perimeter=orthogonalPerimeter;outlineConnect=0;targetShapes=umlLifeline;portConstraint=eastwest;newEdgeStyle={&quot;curved&quot;:0,&quot;rounded&quot;:0};" vertex="1" parent="1">
          <mxGeometry x="80" y="630" width="10" height="80" as="geometry" />
        </mxCell>
        <mxCell id="ybonvfWxFbhNdkA5fpZU-14" value="活性区間&lt;div&gt;Activasion B&lt;span style=&quot;background-color: transparent; color: light-dark(rgb(0, 0, 0), rgb(255, 255, 255));&quot;&gt;ar&lt;/span&gt;&lt;/div&gt;" style="rounded=0;whiteSpace=wrap;html=1;fillColor=none;strokeColor=none;" vertex="1" parent="1">
          <mxGeometry x="30" y="585" width="120" height="60" as="geometry" />
        </mxCell>
        <mxCell id="ybonvfWxFbhNdkA5fpZU-15" value="" style="endArrow=none;dashed=1;html=1;dashPattern=1 3;strokeWidth=2;rounded=0;" edge="1" parent="1">
          <mxGeometry width="50" height="50" relative="1" as="geometry">
            <mxPoint x="180" y="720" as="sourcePoint" />
            <mxPoint x="180" y="640" as="targetPoint" />
          </mxGeometry>
        </mxCell>
        <mxCell id="ybonvfWxFbhNdkA5fpZU-17" value="生存線&lt;div&gt;Life Line&lt;/div&gt;" style="text;html=1;align=center;verticalAlign=middle;whiteSpace=wrap;rounded=0;" vertex="1" parent="1">
          <mxGeometry x="150" y="610" width="60" height="30" as="geometry" />
        </mxCell>
        <mxCell id="ybonvfWxFbhNdkA5fpZU-19" value="" style="endArrow=classic;html=1;rounded=0;entryX=0;entryY=0;entryDx=0;entryDy=5;entryPerimeter=0;" edge="1" parent="1">
          <mxGeometry width="50" height="50" relative="1" as="geometry">
            <mxPoint x="180" y="210" as="sourcePoint" />
            <mxPoint x="270" y="210" as="targetPoint" />
          </mxGeometry>
        </mxCell>
        <mxCell id="ybonvfWxFbhNdkA5fpZU-20" value="学生" style="text;html=1;align=center;verticalAlign=middle;whiteSpace=wrap;rounded=0;" vertex="1" parent="1">
          <mxGeometry x="145" y="150" width="60" height="30" as="geometry" />
        </mxCell>
        <mxCell id="ybonvfWxFbhNdkA5fpZU-22" value="メニュー画面" style="text;html=1;align=center;verticalAlign=middle;whiteSpace=wrap;rounded=0;" vertex="1" parent="1">
          <mxGeometry x="235" y="140" width="80" height="30" as="geometry" />
        </mxCell>
        <mxCell id="ybonvfWxFbhNdkA5fpZU-24" value="学生登録画面" style="text;html=1;align=center;verticalAlign=middle;whiteSpace=wrap;rounded=0;" vertex="1" parent="1">
          <mxGeometry x="335" y="140" width="90" height="30" as="geometry" />
        </mxCell>
        <mxCell id="ybonvfWxFbhNdkA5fpZU-25" value="学生登録" style="text;html=1;align=center;verticalAlign=middle;whiteSpace=wrap;rounded=0;" vertex="1" parent="1">
          <mxGeometry x="450" y="140" width="60" height="30" as="geometry" />
        </mxCell>
        <mxCell id="ybonvfWxFbhNdkA5fpZU-26" value="学生オブジェクト" style="text;html=1;align=center;verticalAlign=middle;whiteSpace=wrap;rounded=0;" vertex="1" parent="1">
          <mxGeometry x="520" y="140" width="100" height="30" as="geometry" />
        </mxCell>
        <mxCell id="ybonvfWxFbhNdkA5fpZU-27" value="" style="endArrow=classic;html=1;rounded=0;strokeWidth=4;" edge="1" parent="1">
          <mxGeometry width="50" height="50" relative="1" as="geometry">
            <mxPoint x="60" y="140" as="sourcePoint" />
            <mxPoint x="60" y="420" as="targetPoint" />
          </mxGeometry>
        </mxCell>
        <mxCell id="ybonvfWxFbhNdkA5fpZU-28" value="時間の流れ" style="text;html=1;align=center;verticalAlign=middle;whiteSpace=wrap;rounded=0;" vertex="1" parent="1">
          <mxGeometry x="20" y="420" width="80" height="30" as="geometry" />
        </mxCell>
        <mxCell id="ybonvfWxFbhNdkA5fpZU-30" value="&lt;font style=&quot;font-size: 10px;&quot;&gt;学生登録を選択()&lt;/font&gt;" style="text;html=1;align=center;verticalAlign=middle;whiteSpace=wrap;rounded=0;" vertex="1" parent="1">
          <mxGeometry x="190" y="180" width="80" height="30" as="geometry" />
        </mxCell>
        <mxCell id="ybonvfWxFbhNdkA5fpZU-32" value="&lt;span style=&quot;font-size: 10px;&quot;&gt;操作()&lt;/span&gt;&lt;div&gt;&lt;span style=&quot;font-size: 10px;&quot;&gt;Method&lt;/span&gt;&lt;/div&gt;" style="text;html=1;align=center;verticalAlign=middle;whiteSpace=wrap;rounded=0;" vertex="1" parent="1">
          <mxGeometry x="230" y="674" width="80" height="30" as="geometry" />
        </mxCell>
        <mxCell id="ybonvfWxFbhNdkA5fpZU-33" value="" style="endArrow=classic;html=1;rounded=0;" edge="1" parent="1">
          <mxGeometry width="50" height="50" relative="1" as="geometry">
            <mxPoint x="245" y="709" as="sourcePoint" />
            <mxPoint x="300" y="709" as="targetPoint" />
          </mxGeometry>
        </mxCell>
        <mxCell id="ybonvfWxFbhNdkA5fpZU-34" value="&lt;span style=&quot;font-size: 10px;&quot;&gt;メッセージ&lt;/span&gt;&lt;div&gt;&lt;span style=&quot;font-size: 10px;&quot;&gt;Message&lt;/span&gt;&lt;/div&gt;" style="text;html=1;align=center;verticalAlign=middle;whiteSpace=wrap;rounded=0;" vertex="1" parent="1">
          <mxGeometry x="310" y="674" width="80" height="30" as="geometry" />
        </mxCell>
        <mxCell id="ybonvfWxFbhNdkA5fpZU-36" value="" style="endArrow=classic;html=1;rounded=0;" edge="1" parent="1">
          <mxGeometry width="50" height="50" relative="1" as="geometry">
            <mxPoint x="280" y="220" as="sourcePoint" />
            <mxPoint x="379.5" y="220" as="targetPoint" />
          </mxGeometry>
        </mxCell>
        <mxCell id="ybonvfWxFbhNdkA5fpZU-37" value="&lt;font style=&quot;font-size: 10px;&quot;&gt;表示()&lt;/font&gt;" style="text;html=1;align=center;verticalAlign=middle;whiteSpace=wrap;rounded=0;" vertex="1" parent="1">
          <mxGeometry x="290" y="190" width="80" height="30" as="geometry" />
        </mxCell>
        <mxCell id="ybonvfWxFbhNdkA5fpZU-48" value="" style="endArrow=classic;html=1;rounded=0;exitX=1;exitY=0;exitDx=0;exitDy=5;exitPerimeter=0;" edge="1" parent="1">
          <mxGeometry width="50" height="50" relative="1" as="geometry">
            <mxPoint x="180" y="360" as="sourcePoint" />
            <mxPoint x="379.5" y="360" as="targetPoint" />
          </mxGeometry>
        </mxCell>
        <mxCell id="ybonvfWxFbhNdkA5fpZU-49" value="" style="endArrow=classic;html=1;rounded=0;entryX=0;entryY=0;entryDx=0;entryDy=5;entryPerimeter=0;" edge="1" parent="1" source="ybonvfWxFbhNdkA5fpZU-39">
          <mxGeometry width="50" height="50" relative="1" as="geometry">
            <mxPoint x="430" y="330" as="sourcePoint" />
            <mxPoint x="479" y="376" as="targetPoint" />
          </mxGeometry>
        </mxCell>
        <mxCell id="ybonvfWxFbhNdkA5fpZU-50" value="" style="endArrow=classic;html=1;rounded=0;" edge="1" parent="1">
          <mxGeometry width="50" height="50" relative="1" as="geometry">
            <mxPoint x="486" y="388" as="sourcePoint" />
            <mxPoint x="565.5" y="388" as="targetPoint" />
          </mxGeometry>
        </mxCell>
        <mxCell id="ybonvfWxFbhNdkA5fpZU-51" value="&lt;font style=&quot;font-size: 10px;&quot;&gt;学生データ入力()&lt;/font&gt;" style="text;html=1;align=center;verticalAlign=middle;whiteSpace=wrap;rounded=0;" vertex="1" parent="1">
          <mxGeometry x="230" y="330" width="80" height="30" as="geometry" />
        </mxCell>
        <mxCell id="ybonvfWxFbhNdkA5fpZU-52" value="&lt;font style=&quot;font-size: 10px;&quot;&gt;起動()&lt;/font&gt;" style="text;html=1;align=center;verticalAlign=middle;whiteSpace=wrap;rounded=0;" vertex="1" parent="1">
          <mxGeometry x="390" y="340" width="80" height="30" as="geometry" />
        </mxCell>
        <mxCell id="ybonvfWxFbhNdkA5fpZU-53" value="&lt;font style=&quot;font-size: 10px;&quot;&gt;学生データ登録()&lt;/font&gt;" style="text;html=1;align=center;verticalAlign=middle;whiteSpace=wrap;rounded=0;" vertex="1" parent="1">
          <mxGeometry x="510" y="350" width="80" height="30" as="geometry" />
        </mxCell>
      </root>
    </mxGraphModel>
  </diagram>
</mxfile>
